<svg width="5436" height="1604" viewBox="0 0 5436 1604" fill="none" xmlns="http://www.w3.org/2000/svg">
<path d="M5436 1443.21C5436 1532.05 5366.02 1604 5279.46 1604H156.741C70.2252 1604 0 1532.05 0 1443.21V160.996C0 72.2069 70.2252 0 156.741 0H5279.42C5366.02 0 5435.96 72.2069 5435.96 160.996L5436 1443.21Z" fill="black"/>
<path d="M1185 792.939C1183.82 657.623 1291.97 591.791 1296.92 588.726C1235.67 496.234 1140.74 483.597 1107.38 482.589C1027.64 473.898 950.302 532.005 909.686 532.005C868.259 532.005 805.713 483.429 738.303 484.856C651.558 486.242 570.407 538.261 525.899 619.039C434.047 783.745 502.551 1025.79 590.553 1158.92C634.574 1224.12 686.013 1296.92 753.342 1294.36C819.212 1291.55 843.816 1250.87 923.306 1250.87C1002.07 1250.87 1025.17 1294.36 1093.84 1292.72C1164.53 1291.55 1209.04 1227.23 1251.52 1161.44C1302.39 1086.71 1322.82 1013.11 1323.63 1009.33C1321.97 1008.74 1186.34 955.126 1185 792.939Z" fill="white"/>
<path d="M1055.29 394.991C1090.71 349.102 1114.95 286.671 1108.23 223.316C1056.95 225.668 992.822 260.053 955.894 304.934C923.223 344.484 894.038 409.308 901.577 470.27C959.177 474.72 1018.32 440.167 1055.29 394.991Z" fill="white"/>
<path d="M2138.27 1285.04H2046.21L1995.79 1120.92H1820.51L1772.48 1285.04H1682.86L1856.51 726.311H1963.76L2138.27 1285.04ZM1980.59 1052.07L1934.98 906.173C1930.16 891.268 1921.12 856.169 1907.78 800.917H1906.16C1900.85 824.68 1892.3 859.78 1880.55 906.173L1835.75 1052.07H1980.59V1052.07Z" fill="white"/>
<path d="M2584.84 1078.67C2584.84 1147.19 2566.97 1201.35 2531.21 1241.11C2499.19 1276.5 2459.43 1294.18 2411.96 1294.18C2360.72 1294.18 2323.92 1275.12 2301.5 1236.99H2299.88V1449.23H2213.46V1014.81C2213.46 971.736 2212.36 927.526 2210.26 882.183H2286.26L2291.08 946.042H2292.71C2321.53 897.927 2365.26 873.912 2423.96 873.912C2469.84 873.912 2508.15 892.679 2538.79 930.255C2569.52 967.874 2584.84 1017.33 2584.84 1078.67ZM2496.8 1081.95C2496.8 1042.73 2488.29 1010.4 2471.18 984.961C2452.49 958.427 2427.4 945.16 2395.95 945.16C2374.63 945.16 2355.25 952.549 2337.94 967.118C2320.59 981.813 2309.24 1001 2303.93 1024.76C2301.26 1035.85 2299.92 1044.92 2299.92 1052.05V1119.23C2299.92 1148.53 2308.6 1173.26 2325.94 1193.46C2343.29 1213.65 2365.83 1223.73 2393.56 1223.73C2426.11 1223.73 2451.44 1210.71 2469.56 1184.77C2487.72 1158.78 2496.8 1124.52 2496.8 1081.95Z" fill="white"/>
<path d="M3032.23 1078.67C3032.23 1147.19 3014.35 1201.35 2978.56 1241.11C2946.58 1276.5 2906.81 1294.18 2859.34 1294.18C2808.11 1294.18 2771.3 1275.12 2748.93 1236.99H2747.31V1449.23H2660.88V1014.81C2660.88 971.736 2659.79 927.526 2657.68 882.183H2733.69L2738.51 946.042H2740.13C2768.91 897.927 2812.65 873.912 2871.38 873.912C2917.23 873.912 2955.53 892.679 2986.26 930.255C3016.86 967.874 3032.23 1017.33 3032.23 1078.67ZM2944.18 1081.95C2944.18 1042.73 2935.63 1010.4 2918.53 984.961C2899.84 958.427 2874.83 945.16 2843.33 945.16C2821.97 945.16 2802.64 952.549 2785.29 967.118C2767.94 981.813 2756.63 1001 2751.32 1024.76C2748.68 1035.85 2747.31 1044.92 2747.31 1052.05V1119.23C2747.31 1148.53 2755.98 1173.26 2773.25 1193.46C2790.6 1213.61 2813.13 1223.73 2840.94 1223.73C2873.49 1223.73 2898.83 1210.71 2916.94 1184.77C2935.1 1158.78 2944.18 1124.52 2944.18 1081.95Z" fill="white"/>
<path d="M3532.43 1128.34C3532.43 1175.87 3516.5 1214.54 3484.52 1244.39C3449.38 1277.01 3400.45 1293.3 3337.58 1293.3C3279.54 1293.3 3233 1281.71 3197.78 1258.49L3217.8 1183.89C3255.74 1207.65 3297.37 1219.58 3342.73 1219.58C3375.28 1219.58 3400.61 1211.93 3418.81 1196.74C3436.93 1181.54 3445.97 1161.13 3445.97 1135.69C3445.97 1113.02 3438.51 1093.92 3423.56 1078.42C3408.68 1062.93 3383.83 1048.53 3349.13 1035.22C3254.69 998.736 3207.5 945.29 3207.5 875.008C3207.5 829.077 3224.04 791.416 3257.16 762.111C3290.16 732.764 3334.18 718.111 3389.22 718.111C3438.31 718.111 3479.09 726.97 3511.64 744.646L3490.03 817.615C3459.63 800.485 3425.26 791.92 3386.79 791.92C3356.39 791.92 3332.64 799.687 3315.61 815.138C3301.22 828.951 3294.01 845.786 3294.01 865.729C3294.01 887.813 3302.23 906.076 3318.77 920.435C3333.16 933.702 3359.31 948.061 3397.25 963.553C3443.66 982.908 3477.75 1005.54 3499.68 1031.48C3521.53 1057.35 3532.43 1089.72 3532.43 1128.34Z" fill="white"/>
<path d="M3818.16 949.305H3722.91V1144.91C3722.91 1194.66 3739.69 1219.52 3773.33 1219.52C3788.78 1219.52 3801.58 1218.13 3811.72 1215.36L3814.11 1283.33C3797.09 1289.93 3774.67 1293.24 3746.9 1293.24C3712.77 1293.24 3686.1 1282.45 3666.85 1260.91C3647.67 1239.33 3638.03 1203.14 3638.03 1152.3V949.221H3581.28V882.045H3638.03V808.278L3722.91 781.744V882.045H3818.16V949.305Z" fill="white"/>
<path d="M4247.96 1080.27C4247.96 1142.2 4230.85 1193.04 4196.72 1232.8C4160.93 1273.73 4113.42 1294.14 4054.2 1294.14C3997.13 1294.14 3951.69 1274.53 3917.8 1235.32C3883.91 1196.1 3866.97 1146.6 3866.97 1086.94C3866.97 1024.51 3884.4 973.376 3919.38 933.616C3954.28 893.815 4001.38 873.914 4060.6 873.914C4117.68 873.914 4163.6 893.521 4198.26 932.776C4231.42 970.857 4247.96 1020.02 4247.96 1080.27ZM4158.29 1083.17C4158.29 1046.01 4150.63 1014.14 4135.11 987.566C4116.99 955.406 4091.09 939.368 4057.52 939.368C4022.78 939.368 3996.4 955.448 3978.28 987.566C3962.75 1014.18 3955.09 1046.55 3955.09 1084.84C3955.09 1122 3962.75 1153.87 3978.28 1180.4C3996.96 1212.56 4023.07 1228.6 4056.75 1228.6C4089.75 1228.6 4115.65 1212.23 4134.34 1179.56C4150.27 1152.48 4158.29 1120.28 4158.29 1083.17Z" fill="white"/>
<path d="M4528.87 960.904C4520.31 959.267 4511.19 958.427 4501.63 958.427C4471.23 958.427 4447.72 970.309 4431.18 994.114C4416.79 1015.11 4409.57 1041.64 4409.57 1073.67V1285.07H4323.19L4324 1009.06C4324 962.626 4322.91 920.347 4320.76 882.225H4396.03L4399.2 959.309H4401.59C4410.71 932.817 4425.1 911.488 4444.8 895.492C4464.05 881.091 4484.85 873.912 4507.26 873.912C4515.25 873.912 4522.46 874.5 4528.87 875.549V960.904Z" fill="white"/>
<path d="M4915.37 1064.5C4915.37 1080.54 4914.36 1094.06 4912.21 1105.1H4652.94C4653.96 1144.9 4666.48 1175.34 4690.56 1196.33C4712.41 1215.1 4740.66 1224.5 4775.36 1224.5C4813.75 1224.5 4848.77 1218.17 4880.27 1205.44L4893.8 1267.58C4857 1284.21 4813.54 1292.48 4763.4 1292.48C4703.09 1292.48 4655.74 1274.09 4621.29 1237.35C4586.91 1200.62 4569.69 1151.28 4569.69 1089.4C4569.69 1028.65 4585.7 978.055 4617.76 937.708C4651.32 894.632 4696.68 873.094 4753.76 873.094C4809.82 873.094 4852.26 894.632 4881.08 937.708C4903.9 971.925 4915.37 1014.25 4915.37 1064.5ZM4832.96 1041.28C4833.53 1014.75 4827.89 991.826 4816.18 972.471C4801.22 947.574 4778.24 935.147 4747.31 935.147C4719.06 935.147 4696.07 947.281 4678.52 971.632C4664.13 990.987 4655.58 1014.2 4652.94 1041.24H4832.96V1041.28Z" fill="white"/>
<path d="M1952.01 382.518C1952.01 431.934 1937.7 469.132 1909.12 494.113C1882.65 517.163 1845.04 528.708 1796.31 528.708C1772.15 528.708 1751.48 527.617 1734.17 525.434V255.431C1756.75 251.652 1781.07 249.721 1807.34 249.721C1853.75 249.721 1888.73 260.175 1912.32 281.083C1938.75 304.721 1952.01 338.518 1952.01 382.518ZM1907.22 383.736C1907.22 351.701 1899.03 327.14 1882.65 310.011C1866.28 292.923 1842.36 284.358 1810.87 284.358C1797.49 284.358 1786.1 285.282 1776.65 287.213V492.476C1781.88 493.315 1791.45 493.693 1805.35 493.693C1837.86 493.693 1862.95 484.331 1880.63 465.606C1898.3 446.88 1907.22 419.59 1907.22 383.736Z" fill="white"/>
<path d="M2189.5 425.693C2189.5 456.131 2181.11 481.07 2164.33 500.635C2146.74 520.746 2123.43 530.78 2094.33 530.78C2066.28 530.78 2043.94 521.166 2027.28 501.853C2010.66 482.582 2002.35 458.273 2002.35 428.967C2002.35 398.319 2010.9 373.17 2028.09 353.647C2045.28 334.124 2068.38 324.342 2097.49 324.342C2125.54 324.342 2148.08 333.956 2165.14 353.227C2181.35 371.952 2189.5 396.135 2189.5 425.693ZM2145.44 427.12C2145.44 408.857 2141.63 393.197 2134.05 380.139C2125.13 364.353 2112.45 356.46 2095.95 356.46C2078.88 356.46 2065.91 364.353 2056.99 380.139C2049.37 393.197 2045.6 409.109 2045.6 427.918C2045.6 446.181 2049.41 461.841 2056.99 474.899C2066.19 490.685 2079 498.578 2095.54 498.578C2111.76 498.578 2124.48 490.559 2133.64 474.479C2141.51 461.17 2145.44 445.383 2145.44 427.12Z" fill="white"/>
<path d="M2507.95 328.361L2448.16 526.277H2409.25L2384.48 440.334C2378.2 418.88 2373.09 397.552 2369.12 376.392H2368.35C2364.66 398.14 2359.55 419.426 2352.98 440.334L2326.68 526.277H2287.32L2231.09 328.361H2274.75L2296.36 422.449C2301.58 444.701 2305.88 465.903 2309.33 485.971H2310.1C2313.26 469.43 2318.49 448.353 2325.86 422.869L2352.98 328.403H2387.6L2413.58 420.853C2419.87 443.399 2424.97 465.105 2428.9 486.013H2430.08C2432.96 465.651 2437.3 443.945 2443.05 420.853L2466.24 328.403H2507.95V328.361Z" fill="white"/>
<path d="M2728.17 526.33H2685.69V412.971C2685.69 378.04 2672.88 360.574 2647.19 360.574C2634.58 360.574 2624.41 365.361 2616.5 374.975C2608.68 384.59 2604.71 395.926 2604.71 408.899V526.288H2562.22V384.968C2562.22 367.586 2561.7 348.735 2560.68 328.33H2598.02L2600 359.273H2601.18C2606.12 349.659 2613.5 341.723 2623.19 335.384C2634.7 327.994 2647.59 324.258 2661.7 324.258C2679.53 324.258 2694.37 330.22 2706.16 342.185C2720.84 356.838 2728.17 378.712 2728.17 407.765V526.33V526.33Z" fill="white"/>
<path d="M2845.32 526.312H2802.88V237.584H2845.32V526.312Z" fill="white"/>
<path d="M3095.42 425.693C3095.42 456.131 3087.03 481.07 3070.25 500.635C3052.66 520.746 3029.31 530.78 3000.25 530.78C2972.15 530.78 2949.82 521.166 2933.2 501.853C2916.58 482.582 2908.27 458.273 2908.27 428.967C2908.27 398.319 2916.82 373.17 2934.01 353.647C2951.2 334.124 2974.3 324.342 3003.37 324.342C3031.46 324.342 3053.95 333.956 3071.06 353.227C3087.27 371.952 3095.42 396.135 3095.42 425.693ZM3051.32 427.12C3051.32 408.857 3047.51 393.197 3039.93 380.139C3031.05 364.353 3018.32 356.46 3001.87 356.46C2984.76 356.46 2971.79 364.353 2962.91 380.139C2955.29 393.197 2951.52 409.109 2951.52 427.918C2951.52 446.181 2955.33 461.841 2962.91 474.899C2972.11 490.685 2984.92 498.578 3001.46 498.578C3017.68 498.578 3030.36 490.559 3039.52 474.479C3047.43 461.17 3051.32 445.383 3051.32 427.12Z" fill="white"/>
<path d="M3301.02 526.288H3262.88L3259.71 503.49H3258.54C3245.49 521.669 3226.88 530.78 3202.72 530.78C3184.68 530.78 3170.09 524.776 3159.11 512.853C3149.13 502.021 3144.15 488.544 3144.15 472.547C3144.15 448.364 3153.88 429.933 3173.46 417.17C3192.99 404.406 3220.48 398.151 3255.86 398.445V394.75C3255.86 368.678 3242.65 355.662 3216.18 355.662C3197.33 355.662 3180.71 360.575 3166.36 370.315L3157.73 341.43C3175.48 330.052 3197.41 324.342 3223.27 324.342C3273.21 324.342 3298.26 351.632 3298.26 406.212V479.097C3298.26 498.872 3299.2 514.616 3301.02 526.288ZM3256.92 458.273V427.75C3210.06 426.91 3186.63 440.219 3186.63 467.635C3186.63 477.963 3189.3 485.689 3194.78 490.853C3200.25 496.017 3207.22 498.578 3215.53 498.578C3224.85 498.578 3233.57 495.513 3241.51 489.425C3249.5 483.295 3254.4 475.528 3256.23 465.998C3256.67 463.857 3256.92 461.254 3256.92 458.273Z" fill="white"/>
<path d="M3542.4 526.312H3504.71L3502.72 494.53H3501.54C3489.51 518.713 3468.99 530.804 3440.17 530.804C3417.15 530.804 3397.98 521.442 3382.78 502.717C3367.58 483.992 3360 459.682 3360 429.831C3360 397.797 3368.22 371.851 3384.76 352.034C3400.77 333.561 3420.39 324.324 3443.74 324.324C3469.4 324.324 3487.36 333.267 3497.57 351.194H3498.38V237.584H3540.9V472.992C3540.9 492.263 3541.39 510.022 3542.4 526.312ZM3498.38 442.847V409.847C3498.38 404.137 3497.98 399.519 3497.21 395.992C3494.82 385.412 3489.67 376.511 3481.84 369.332C3473.94 362.152 3464.41 358.542 3453.43 358.542C3437.58 358.542 3425.18 365.049 3416.06 378.106C3407.02 391.164 3402.44 407.831 3402.44 428.194C3402.44 447.759 3406.77 463.629 3415.49 475.847C3424.69 488.862 3437.09 495.369 3452.62 495.369C3466.56 495.369 3477.71 489.953 3486.18 479.079C3494.37 469.045 3498.38 456.953 3498.38 442.847Z" fill="white"/>
<path d="M3905.72 425.693C3905.72 456.131 3897.33 481.07 3880.55 500.635C3862.95 520.746 3839.69 530.78 3810.54 530.78C3782.53 530.78 3760.2 521.166 3743.5 501.853C3726.88 482.582 3718.57 458.273 3718.57 428.967C3718.57 398.319 3727.12 373.17 3744.31 353.647C3761.49 334.124 3784.6 324.342 3813.74 324.342C3841.75 324.342 3864.33 333.956 3881.36 353.227C3897.57 371.952 3905.72 396.135 3905.72 425.693ZM3861.7 427.12C3861.7 408.857 3857.89 393.197 3850.31 380.139C3841.35 364.353 3828.7 356.46 3812.16 356.46C3795.14 356.46 3782.17 364.353 3773.21 380.139C3765.59 393.197 3761.82 409.109 3761.82 427.918C3761.82 446.181 3765.63 461.841 3773.21 474.899C3782.41 490.685 3795.22 498.578 3811.76 498.578C3827.97 498.578 3840.74 490.559 3849.9 474.479C3857.72 461.17 3861.7 445.383 3861.7 427.12Z" fill="white"/>
<path d="M4134.14 526.33H4091.7V412.971C4091.7 378.04 4078.89 360.574 4053.15 360.574C4040.54 360.574 4030.37 365.361 4022.5 374.975C4014.64 384.59 4010.71 395.926 4010.71 408.899V526.288H3968.19V384.968C3968.19 367.586 3967.7 348.735 3966.69 328.33H4003.98L4005.97 359.273H4007.14C4012.13 349.659 4019.5 341.723 4029.15 335.384C4040.7 327.994 4053.55 324.258 4067.7 324.258C4085.5 324.258 4100.33 330.22 4112.13 342.185C4126.84 356.838 4134.14 378.712 4134.14 407.765V526.33V526.33Z" fill="white"/>
<path d="M4420.03 361.326H4373.25V457.471C4373.25 481.906 4381.56 494.123 4398.02 494.123C4405.64 494.123 4411.96 493.452 4416.95 492.066L4418.04 525.444C4409.65 528.719 4398.63 530.356 4385.05 530.356C4368.27 530.356 4355.22 525.066 4345.77 514.486C4336.29 503.906 4331.58 486.104 4331.58 461.123V361.326H4303.65V328.368H4331.58V292.093L4373.21 279.078V328.326H4419.99V361.326H4420.03Z" fill="white"/>
<path d="M4644.92 526.312H4602.4V413.793C4602.4 378.316 4589.59 360.557 4563.93 360.557C4544.23 360.557 4530.77 370.843 4523.39 391.416C4522.14 395.74 4521.41 401.03 4521.41 407.244V526.27H4478.97V237.584H4521.41V356.862H4522.22C4535.59 335.156 4554.77 324.324 4579.62 324.324C4597.21 324.324 4611.76 330.286 4623.31 342.252C4637.7 357.156 4644.92 379.324 4644.92 408.629V526.312V526.312Z" fill="white"/>
<path d="M4876.9 418.017C4876.9 425.91 4876.33 432.544 4875.32 437.96H4747.92C4748.48 457.525 4754.56 472.429 4766.36 482.757C4777.14 491.994 4791.05 496.612 4808.07 496.612C4826.92 496.612 4844.11 493.505 4859.59 487.25L4866.24 517.814C4848.12 525.959 4826.8 530.032 4802.11 530.032C4772.52 530.032 4749.21 521.005 4732.35 502.952C4715.41 484.899 4707.02 460.673 4707.02 430.277C4707.02 400.426 4714.84 375.571 4730.61 355.754C4747.06 334.594 4769.32 324.014 4797.41 324.014C4824.89 324.014 4845.77 334.594 4859.87 355.754C4871.26 372.548 4876.9 393.33 4876.9 418.017ZM4836.36 406.639C4836.69 393.582 4833.89 382.33 4828.14 372.842C4820.76 360.624 4809.53 354.494 4794.33 354.494C4780.47 354.494 4769.16 360.456 4760.52 372.422C4753.47 381.952 4749.29 393.33 4747.92 406.639H4836.36Z" fill="white"/>
</svg>
