<svg id="instaText" viewBox="0 0 6831 1818" fill="none" xmlns="http://www.w3.org/2000/svg">
<path d="M351.489 6.31772C211.94 61.0677 57.935 216.453 9.56534 410.946C-52.1477 657.581 204.156 761.867 224.727 727.453C249.19 687.303 178.581 673.746 164.126 545.474C145.779 380.703 228.063 196.118 330.918 115.296C349.821 100.175 349.265 121.032 349.265 160.139C349.265 229.489 345.373 851.552 345.373 981.388C345.373 1157.11 337.59 1212.38 323.69 1267.65C309.791 1323.44 286.996 1360.99 304.231 1375.07C323.134 1391.23 405.419 1352.64 452.676 1290.59C509.386 1216.03 529.401 1126.87 532.737 1029.88C537.184 913.081 536.628 727.453 537.184 621.603C537.184 524.617 538.852 240.439 535.516 69.4105C534.404 27.1748 410.422 -16.6251 351.489 6.31772ZM5316.89 828.61C5312.44 919.86 5290.76 991.295 5264.07 1041.87C5212.37 1139.38 5104.51 1169.62 5058.92 1029.36C5033.9 953.231 5032.79 825.481 5050.58 718.588C5068.93 610.131 5119.52 527.746 5204.03 535.567C5287.42 542.867 5325.79 642.981 5316.89 828.61ZM3917.5 1395.4C3916.39 1547.14 3890.82 1680.1 3836.33 1718.69C3759.05 1773.44 3654.53 1732.24 3676.21 1621.7C3695.11 1523.67 3785.74 1423.56 3917.5 1301.54C3917.5 1301.54 3918.06 1329.18 3917.5 1395.4ZM3896.38 828.088C3891.93 911.517 3868.58 994.945 3843.56 1041.87C3791.85 1139.38 3683.44 1169.62 3638.41 1029.36C3607.83 933.417 3615.05 809.317 3630.07 731.103C3649.52 629.424 3697.34 535.567 3783.51 535.567C3866.91 535.567 3908.05 621.603 3896.38 828.088ZM3085.77 826.524C3080.76 914.645 3062.42 988.167 3032.95 1041.87C2979.58 1138.86 2874.5 1169.62 2827.8 1029.36C2794.44 928.724 2805.56 791.067 2819.46 716.503C2840.03 605.96 2891.73 528.267 2972.91 535.567C3055.75 543.389 3096.33 642.981 3085.77 826.524ZM6800.78 929.245C6780.21 929.245 6771.32 949.06 6763.53 981.909C6736.85 1096.62 6709.05 1122.7 6672.91 1122.7C6632.88 1122.7 6596.74 1065.86 6587.29 952.188C6580.06 862.502 6581.17 698.253 6590.63 534.003C6592.29 500.11 6582.84 467.26 6486.1 434.41C6444.4 420.332 6384.36 399.474 6354.34 467.26C6269.83 659.146 6236.47 811.403 6228.69 872.931C6228.13 876.06 6224.24 876.581 6223.13 869.281C6218.12 819.745 6207 729.538 6205.89 540.781C6205.89 503.76 6197.55 472.474 6153.63 446.924C6125.28 430.239 6040.21 400.517 6009.08 435.974C5982.39 464.653 5951.26 541.824 5919.57 633.596C5893.43 708.16 5875.09 758.217 5875.09 758.217C5875.09 758.217 5875.64 557.467 5875.64 481.339C5875.64 452.66 5854.52 443.274 5848.4 441.189C5820.05 433.367 5763.89 420.332 5739.99 420.332C5710.52 420.332 5703.29 435.974 5703.29 458.396C5703.29 461.524 5698.84 722.76 5698.84 905.781C5698.84 913.602 5698.84 922.467 5698.84 931.852C5682.72 1015.8 5629.9 1130 5572.08 1130C5514.82 1130 5487.57 1082.02 5487.57 864.588C5487.57 737.36 5491.47 682.088 5493.69 590.317C5494.8 537.131 5497.03 496.46 5497.03 487.596C5496.47 459.439 5444.21 444.839 5420.3 439.624C5395.84 434.41 5374.71 432.324 5358.03 433.367C5334.68 434.41 5318 449.01 5318 468.824C5318 479.253 5318 499.589 5318 499.589C5287.98 455.267 5239.05 423.982 5206.81 415.117C5120.08 390.61 5028.9 412.51 4960.51 502.196C4906.03 573.631 4873.22 654.453 4860.44 770.731C4850.98 855.724 4854.32 941.759 4871 1014.76C4850.98 1097.15 4813.18 1130.52 4772.04 1130.52C4711.99 1130.52 4668.62 1038.75 4673.63 880.752C4676.96 776.467 4699.2 703.467 4723.67 597.617C4734.23 552.774 4725.33 528.789 4704.76 506.367C4685.3 485.51 4644.16 475.081 4584.67 488.117C4542.42 497.503 4481.82 507.41 4426.78 515.231C4426.78 515.231 4430.11 502.717 4432.89 480.817C4447.35 365.582 4313.36 374.967 4271.1 411.467C4245.53 433.367 4228.29 459.439 4221.62 505.846C4211.06 579.888 4275.55 614.824 4275.55 614.824C4254.42 705.553 4202.72 823.917 4149.34 909.431C4120.99 955.317 4098.75 989.209 4070.4 1025.71C4070.4 1012.15 4070.4 998.595 4070.4 985.559C4069.84 794.717 4072.62 645.067 4073.73 590.838C4074.84 537.653 4077.07 498.024 4077.07 489.16C4076.51 468.303 4063.73 460.482 4037.04 450.574C4013.13 441.71 3985.33 435.974 3956.42 433.889C3919.73 429.717 3897.49 447.967 3898.05 469.346C3898.05 473.517 3898.05 498.546 3898.05 498.546C3868.02 454.224 3819.1 422.939 3786.85 414.074C3700.12 390.089 3608.94 411.467 3540.55 501.153C3486.07 572.588 3450.49 672.703 3440.48 768.645C3431.03 858.331 3432.7 933.938 3445.48 998.074C3431.58 1062.21 3392.11 1129.47 3347.08 1129.47C3289.81 1129.47 3257.01 1081.5 3257.01 864.067C3257.01 736.838 3260.9 681.567 3263.12 589.796C3264.24 536.61 3266.46 495.939 3266.46 487.074C3265.9 458.917 3213.64 444.317 3189.73 439.103C3164.16 433.367 3142.48 431.803 3125.8 432.846C3103.56 434.41 3087.99 453.181 3087.99 466.739V499.067C3057.97 454.746 3009.04 423.46 2976.8 414.596C2890.07 390.61 2799.44 411.989 2730.5 501.674C2685.47 560.074 2649.33 624.731 2630.43 768.124C2624.87 809.317 2622.64 848.424 2623.2 884.402C2605.41 987.124 2525.9 1106.01 2461.41 1106.01C2423.6 1106.01 2387.46 1037.18 2387.46 890.138C2387.46 694.081 2400.25 415.639 2402.48 388.524C2402.48 388.524 2484.2 387.482 2500.33 386.96C2540.91 386.439 2578.16 387.482 2632.65 384.874C2659.89 383.832 2686.02 291.539 2658.22 280.589C2645.44 275.375 2555.37 270.682 2519.23 270.16C2489.21 269.639 2405.26 263.903 2405.26 263.903C2405.26 263.903 2413.04 78.7962 2414.71 59.5034C2416.38 43.3391 2393.58 34.9963 2380.79 29.782C2349.66 17.2677 2321.3 11.532 2287.95 4.75344C2241.8 -4.11084 2221.23 4.75343 2217.34 40.732C2211.22 96.0033 2207.89 257.646 2207.89 257.646C2173.97 257.646 2058.88 251.389 2025.53 251.389C1994.39 251.389 1960.48 377.574 2003.84 379.139C2053.88 380.703 2140.61 382.267 2197.88 384.353C2197.88 384.353 2195.1 668.01 2195.1 755.088C2195.1 764.474 2195.1 773.338 2195.1 782.203C2163.41 937.067 2051.66 1020.5 2051.66 1020.5C2075.56 918.295 2026.64 841.124 1938.24 775.945C1905.99 751.96 1841.5 706.596 1769.78 656.538C1769.78 656.538 1811.48 617.953 1848.17 540.781C1874.3 486.031 1875.41 423.46 1811.48 409.382C1705.84 386.439 1618 459.439 1592.42 537.131C1572.41 597.617 1582.97 642.46 1622.44 688.867C1625.22 691.996 1628.56 695.646 1631.9 699.295C1607.99 742.574 1575.19 800.453 1547.39 845.817C1470.11 970.959 1411.73 1070.03 1367.81 1070.03C1332.78 1070.03 1332.78 969.395 1332.78 875.017C1332.78 793.674 1338.9 671.66 1344.46 545.474C1346.13 503.76 1323.89 479.774 1286.64 458.396C1263.84 445.36 1215.47 419.289 1187.67 419.289C1145.42 419.289 1024.77 424.503 910.243 735.274C895.787 774.381 867.433 845.817 867.433 845.817L869.657 472.474C869.657 463.61 864.653 455.267 853.533 449.531C834.074 439.624 782.925 419.81 736.779 419.81C715.096 419.81 703.976 429.196 703.976 448.489L698.973 1032.49C698.973 1076.81 700.085 1128.43 705.088 1151.37C709.536 1173.79 717.32 1192.57 726.771 1203.52C736.223 1214.47 746.786 1222.81 764.578 1226.46C781.257 1229.59 871.881 1240.54 876.884 1208.21C882.444 1169.1 883 1126.87 930.258 969.395C1004.2 724.324 1101.5 604.917 1146.53 562.681C1154.32 555.381 1163.77 554.86 1163.21 566.853C1160.99 620.56 1154.32 754.567 1149.87 868.76C1137.64 1173.79 1196.57 1230.63 1281.08 1230.63C1345.57 1230.63 1436.75 1170.15 1534.6 1017.89C1595.76 922.988 1654.69 829.652 1697.5 762.388C1726.97 787.938 1760.33 815.574 1793.68 845.295C1870.97 914.124 1896.54 979.302 1879.3 1041.35C1866.52 1088.8 1818.15 1137.3 1731.97 1089.85C1706.95 1075.77 1695.83 1065.34 1670.81 1049.7C1657.47 1041.35 1636.34 1038.75 1624.11 1047.61C1591.87 1070.55 1573.52 1099.75 1562.96 1135.21C1552.95 1170.15 1590.2 1188.92 1628.56 1205.08C1661.92 1219.16 1733.64 1231.67 1779.23 1233.24C1957.14 1238.97 2100.03 1152.42 2199.55 930.288C2217.34 1122.17 2292.95 1231.15 2424.72 1231.15C2512.56 1231.15 2600.96 1124.78 2639.32 1019.97C2650.44 1062.73 2666.56 1099.75 2687.69 1131.04C2788.88 1281.73 2985.69 1249.4 3084.1 1121.13C3114.68 1081.5 3119.13 1067.42 3119.13 1067.42C3133.58 1187.87 3236.99 1230.11 3296.48 1230.11C3363.2 1230.11 3431.58 1200.91 3479.4 1099.23C3484.96 1110.18 3491.07 1120.61 3497.74 1130.52C3598.93 1281.21 3795.75 1248.36 3894.15 1120.61C3898.6 1114.87 3903.05 1109.14 3906.38 1104.45L3909.16 1183.7C3909.16 1183.7 3853.01 1232.19 3818.54 1261.92C3666.2 1392.79 3550.56 1492.39 3542.22 1607.62C3531.1 1755.19 3658.98 1809.94 3755.16 1817.24C3857.46 1825.06 3945.3 1771.87 3999.23 1697.31C4046.49 1632.13 4077.62 1491.34 4075.4 1352.12C4074.29 1296.33 4073.18 1225.94 4072.06 1149.81C4125.44 1091.41 4185.48 1017.89 4241.08 931.852C4301.68 837.995 4366.17 711.81 4399.53 613.781C4399.53 613.781 4455.69 614.303 4515.73 610.653C4535.19 609.61 4540.75 613.26 4536.86 626.296C4532.41 642.46 4461.25 901.088 4526.3 1073.68C4570.77 1191.52 4671.96 1229.59 4731.45 1229.59C4801.5 1229.59 4868.22 1180.05 4904.36 1106.53C4908.81 1114.87 4913.25 1122.7 4918.26 1130C5019.44 1280.69 5215.15 1247.84 5314.67 1120.09C5336.9 1091.41 5349.69 1066.38 5349.69 1066.38C5370.82 1191.52 5474.79 1230.11 5533.72 1230.11C5595.43 1230.11 5654.37 1206.12 5701.62 1100.8C5703.85 1147.2 5706.63 1185.27 5711.63 1197.26C5714.41 1204.56 5732.2 1213.94 5744.99 1218.12C5801.7 1237.93 5858.96 1228.54 5880.65 1224.37C5895.66 1221.77 5906.78 1210.29 5908.45 1181.62C5912.34 1106.01 5910.11 979.302 5934.58 885.445C5975.72 727.453 6013.52 665.924 6031.87 635.681C6041.88 618.474 6053.55 615.867 6054.11 633.596C6055.22 670.096 6056.89 776.988 6072.46 920.381C6084.13 1026.23 6099.7 1088.28 6111.38 1108.1C6145.29 1164.41 6187.54 1167.02 6222.02 1167.02C6243.7 1167.02 6289.29 1161.28 6285.4 1125.3C6283.17 1107.57 6287.06 999.638 6327.09 843.731C6353.22 742.053 6397.15 650.281 6413.27 616.91C6419.39 604.396 6421.61 614.303 6421.61 616.388C6418.27 686.26 6411.05 915.167 6441.07 1040.31C6482.21 1209.77 6601.75 1229.07 6642.89 1229.07C6731.29 1229.07 6804.12 1165.97 6828.58 999.117C6835.81 960.531 6826.91 929.245 6800.78 929.245Z" fill="#262626"/>
</svg>
